<svg xmlns="http://www.w3.org/2000/svg" width="960" height="1010" viewBox="0 0 960 1010"><rect x="0" y="0" width="960" height="1010" rx="0" fill="#F3F7F8"/><rect x="42" y="35" width="10" height="56" rx="4" fill="#167F85"/><text x="72" y="39" dominant-baseline="text-before-edge" fill="#102C45" font-family="Heiti SC, STHeiti, sans-serif" font-size="43">第一篇论文：明确编号，实际保存</text><text x="44" y="112" dominant-baseline="text-before-edge" fill="#547080" font-family="Heiti SC, STHeiti, sans-serif" font-size="29">演示目标：Attention Is All You Need</text><rect x="42" y="177" width="876" height="148" rx="20" fill="#FFFFFF"/><text x="68" y="197" dominant-baseline="text-before-edge" fill="#167F85" font-family="Heiti SC, STHeiti, sans-serif" font-size="35">01  确认论文身份</text><text x="68" y="255" dominant-baseline="text-before-edge" fill="#102C45" font-family="Arial" font-size="48">arXiv:1706.03762</text><path d="M 480 338 V 360 M 471 354 L 480 364 L 489 354" stroke="#167F85" stroke-width="4" fill="none"/><rect x="42" y="382" width="876" height="189" rx="20" fill="#FFFFFF"/><text x="68" y="402" dominant-baseline="text-before-edge" fill="#167F85" font-family="Heiti SC, STHeiti, sans-serif" font-size="35">02  要求下载到指定目录</text><text x="68" y="458" dominant-baseline="text-before-edge" fill="#102C45" font-family="Arial" font-size="38">literature_test/</text><text x="68" y="514" dominant-baseline="text-before-edge" fill="#547080" font-family="Heiti SC, STHeiti, sans-serif" font-size="32">1706.03762_实际版本.pdf</text><path d="M 480 584 V 606 M 471 600 L 480 610 L 489 600" stroke="#167F85" stroke-width="4" fill="none"/><rect x="42" y="628" width="876" height="191" rx="20" fill="#FFFFFF"/><text x="68" y="648" dominant-baseline="text-before-edge" fill="#167F85" font-family="Heiti SC, STHeiti, sans-serif" font-size="35">03  自己打开一次，再核对</text><text x="68" y="704" dominant-baseline="text-before-edge" fill="#102C45" font-family="Heiti SC, STHeiti, sans-serif" font-size="34">首页题名相符，末页能正常显示</text><text x="68" y="756" dominant-baseline="text-before-edge" fill="#547080" font-family="Heiti SC, STHeiti, sans-serif" font-size="32">清单记录来源、路径、版本与状态</text><rect x="42" y="850" width="876" height="65" rx="16" fill="#D9EAEC"/><text x="65" y="866" dominant-baseline="text-before-edge" fill="#167F85" font-family="Heiti SC, STHeiti, sans-serif" font-size="31">看到链接后，还要检查文件是否真的保存</text><text x="44" y="956" dominant-baseline="text-before-edge" fill="#547080" font-family="Heiti SC, STHeiti, sans-serif" font-size="27">操作示意 · 不是实际下载结果</text></svg>